STARTFONT 2.1
COMMENT The X10 name for this font was "timrom12b"
FONT timrom12b.bdf
SIZE 11 75 75
FONTBOUNDINGBOX 16 16 0 0
STARTPROPERTIES 2
FONT_DESCENT 3
FONT_ASCENT 13
ENDPROPERTIES
CHARS 126
STARTCHAR C001
ENCODING 1
SWIDTH 1 0
DWIDTH 8 0
BBX 8 16 0 -3
BITMAP
00
00
33
1e
0c
00
00
00
00
00
00
00
00
00
00
00
ENDCHAR
STARTCHAR C002
ENCODING 2
SWIDTH 1 0
DWIDTH 7 0
BBX 7 16 0 -3
BITMAP
00
00
00
18
18
00
18
10
30
60
6c
64
38
00
00
00
ENDCHAR
STARTCHAR C003
ENCODING 3
SWIDTH 1 0
DWIDTH 7 0
BBX 7 16 0 -3
BITMAP
00
00
00
00
00
00
3c
62
66
60
60
62
3c
08
28
38
ENDCHAR
STARTCHAR C004
ENCODING 4
SWIDTH 1 0
DWIDTH 8 0
BBX 8 16 0 -3
BITMAP
00
00
00
1b
1b
00
00
00
00
00
00
00
00
00
00
00
ENDCHAR
STARTCHAR C005
ENCODING 5
SWIDTH 1 0
DWIDTH 8 0
BBX 8 16 0 -3
BITMAP
00
04
06
03
01
00
00
00
00
00
00
00
00
00
00
00
ENDCHAR
STARTCHAR C006
ENCODING 6
SWIDTH 1 0
DWIDTH 10 0
BBX 10 16 0 -3
BITMAP
0000
0000
0000
1dc0
3340
3300
7f80
3300
3300
3300
3300
3300
7f80
0000
0000
0000
ENDCHAR
STARTCHAR C007
ENCODING 7
SWIDTH 1 0
DWIDTH 4 0
BBX 4 16 0 -3
BITMAP
00
00
00
20
40
60
60
00
00
00
00
00
00
00
00
00
ENDCHAR
STARTCHAR C010
ENCODING 8
SWIDTH 1 0
DWIDTH 4 0
BBX 4 16 0 -3
BITMAP
00
00
00
60
60
00
60
60
60
60
60
60
60
00
00
00
ENDCHAR
STARTCHAR C011
ENCODING 9
SWIDTH 1 0
DWIDTH 0 0
BBX 0 16 0 -3
BITMAP
0
0
0
0
0
0
0
0
0
0
0
0
0
0
0
0
ENDCHAR
STARTCHAR C012
ENCODING 10
SWIDTH 1 0
DWIDTH 0 0
BBX 0 16 0 -3
BITMAP
0
0
0
0
0
0
0
0
0
0
0
0
0
0
0
0
ENDCHAR
STARTCHAR C013
ENCODING 11
SWIDTH 1 0
DWIDTH 7 0
BBX 7 16 0 -3
BITMAP
00
02
06
0c
08
00
00
00
00
00
00
00
00
00
00
00
ENDCHAR
STARTCHAR C014
ENCODING 12
SWIDTH 1 0
DWIDTH 0 0
BBX 0 16 0 -3
BITMAP
0
0
0
0
0
0
0
0
0
0
0
0
0
0
0
0
ENDCHAR
STARTCHAR C015
ENCODING 13
SWIDTH 1 0
DWIDTH 0 0
BBX 0 16 0 -3
BITMAP
0
0
0
0
0
0
0
0
0
0
0
0
0
0
0
0
ENDCHAR
STARTCHAR C016
ENCODING 14
SWIDTH 1 0
DWIDTH 7 0
BBX 7 16 0 -3
BITMAP
00
00
1e
1e
00
00
00
00
00
00
00
00
00
00
00
00
ENDCHAR
STARTCHAR C017
ENCODING 15
SWIDTH 1 0
DWIDTH 16 0
BBX 16 16 0 -3
BITMAP
0000
0000
0000
0000
0000
0000
0000
0000
0000
0000
0000
0000
0000
0000
0000
0000
ENDCHAR
STARTCHAR C020
ENCODING 16
SWIDTH 1 0
DWIDTH 9 0
BBX 9 16 0 -3
BITMAP
0000
0000
1c80
3f80
2700
0000
0000
0000
0000
0000
0000
0000
0000
0000
0000
0000
ENDCHAR
STARTCHAR C021
ENCODING 17
SWIDTH 1 0
DWIDTH 14 0
BBX 14 16 0 -3
BITMAP
0000
0000
0000
1df0
3330
3300
7ff0
3330
3330
3330
3330
3330
7ff8
0000
0000
0000
ENDCHAR
STARTCHAR C022
ENCODING 18
SWIDTH 1 0
DWIDTH 14 0
BBX 14 16 0 -3
BITMAP
0000
0000
0000
1df0
3330
3330
7ff0
3330
3330
3330
3330
3330
7ff8
0000
0000
0000
ENDCHAR
STARTCHAR C023
ENCODING 19
SWIDTH 1 0
DWIDTH 16 0
BBX 16 16 0 -3
BITMAP
0000
0000
0000
0000
0000
0000
0000
ffff
ffff
0000
0000
0000
0000
0000
0000
0000
ENDCHAR
STARTCHAR C024
ENCODING 20
SWIDTH 1 0
DWIDTH 10 0
BBX 10 16 0 -3
BITMAP
0000
0000
0000
1f00
3300
3000
7f00
3300
3300
3300
3300
3300
7f80
0000
0000
0000
ENDCHAR
STARTCHAR C025
ENCODING 21
SWIDTH 1 0
DWIDTH 10 0
BBX 10 16 0 -3
BITMAP
0000
0000
0000
1f00
3300
3300
7f00
3300
3300
3300
3300
3300
7f80
0000
0000
0000
ENDCHAR
STARTCHAR C026
ENCODING 22
SWIDTH 1 0
DWIDTH 8 0
BBX 8 16 0 -3
BITMAP
00
00
00
00
00
00
00
ff
ff
00
00
00
00
00
00
00
ENDCHAR
STARTCHAR C027
ENCODING 23
SWIDTH 1 0
DWIDTH 9 0
BBX 9 16 0 -3
BITMAP
0000
3180
1f00
0e00
0000
0000
0000
0000
0000
0000
0000
0000
0000
0000
0000
0000
ENDCHAR
STARTCHAR C030
ENCODING 24
SWIDTH 1 0
DWIDTH 16 0
BBX 16 16 0 -3
BITMAP
0000
0000
0000
0000
0000
0000
0000
1ff8
1ff8
0000
0000
0000
0000
0000
0000
0000
ENDCHAR
STARTCHAR C031
ENCODING 25
SWIDTH 1 0
DWIDTH 8 0
BBX 8 16 0 -3
BITMAP
00
00
00
00
00
00
00
00
00
00
00
00
00
00
00
00
ENDCHAR
STARTCHAR C032
ENCODING 26
SWIDTH 1 0
DWIDTH 0 0
BBX 0 16 0 -3
BITMAP
0
0
0
0
0
0
0
0
0
0
0
0
0
0
0
0
ENDCHAR
STARTCHAR C033
ENCODING 27
SWIDTH 1 0
DWIDTH 0 0
BBX 0 16 0 -3
BITMAP
0
0
0
0
0
0
0
0
0
0
0
0
0
0
0
0
ENDCHAR
STARTCHAR C034
ENCODING 28
SWIDTH 1 0
DWIDTH 8 0
BBX 8 16 0 -3
BITMAP
00
00
00
00
00
00
00
00
00
00
00
00
00
00
00
00
ENDCHAR
STARTCHAR C035
ENCODING 29
SWIDTH 1 0
DWIDTH 6 0
BBX 6 16 0 -3
BITMAP
00
00
00
00
00
00
00
00
00
00
00
00
00
00
0c
0c
ENDCHAR
STARTCHAR C036
ENCODING 30
SWIDTH 1 0
DWIDTH 9 0
BBX 9 16 0 -3
BITMAP
0000
0000
1c80
3f80
2700
0000
0000
0000
0000
0000
0000
0000
0000
0000
0000
0000
ENDCHAR
STARTCHAR C037
ENCODING 31
SWIDTH 1 0
DWIDTH 8 0
BBX 8 16 0 -3
BITMAP
00
04
0e
1b
0e
04
00
00
00
00
00
00
00
00
00
00
ENDCHAR
STARTCHAR C040
ENCODING 32
SWIDTH 1 0
DWIDTH 6 0
BBX 6 16 0 -3
BITMAP
00
00
00
00
00
00
00
00
00
00
00
00
00
00
00
00
ENDCHAR
STARTCHAR !
ENCODING 33
SWIDTH 1 0
DWIDTH 4 0
BBX 4 16 0 -3
BITMAP
00
00
00
60
60
60
60
60
60
60
00
60
60
00
00
00
ENDCHAR
STARTCHAR "
ENCODING 34
SWIDTH 1 0
DWIDTH 7 0
BBX 7 16 0 -3
BITMAP
00
00
00
6c
6c
6c
6c
00
00
00
00
00
00
00
00
00
ENDCHAR
STARTCHAR #
ENCODING 35
SWIDTH 1 0
DWIDTH 12 0
BBX 12 16 0 -3
BITMAP
0000
0000
0000
06c0
06c0
1fe0
0d80
1980
1b00
7f80
3600
3600
0000
0000
0000
0000
ENDCHAR
STARTCHAR $
ENCODING 36
SWIDTH 1 0
DWIDTH 9 0
BBX 9 16 0 -3
BITMAP
0000
0000
0800
3e00
6b00
6800
7800
3e00
0f00
0b00
4b00
6b00
3e00
0800
0000
0000
ENDCHAR
STARTCHAR %
ENCODING 37
SWIDTH 1 0
DWIDTH 13 0
BBX 13 16 0 -3
BITMAP
0000
0000
1840
27c0
4480
4580
4900
3260
0490
0510
0910
1920
10c0
0000
0000
0000
ENDCHAR
STARTCHAR &
ENCODING 38
SWIDTH 1 0
DWIDTH 12 0
BBX 12 16 0 -3
BITMAP
0000
0000
0000
0e00
1b00
1b00
0e00
1ce0
2e40
6680
6700
7380
3de0
0000
0000
0000
ENDCHAR
STARTCHAR '
ENCODING 39
SWIDTH 1 0
DWIDTH 4 0
BBX 4 16 0 -3
BITMAP
00
00
00
60
60
20
40
00
00
00
00
00
00
00
00
00
ENDCHAR
STARTCHAR (
ENCODING 40
SWIDTH 1 0
DWIDTH 6 0
BBX 6 16 0 -3
BITMAP
00
00
08
10
20
20
60
60
60
60
60
20
20
10
08
00
ENDCHAR
STARTCHAR )
ENCODING 41
SWIDTH 1 0
DWIDTH 6 0
BBX 6 16 0 -3
BITMAP
00
00
40
20
30
10
18
18
18
18
18
10
30
20
40
00
ENDCHAR
STARTCHAR *
ENCODING 42
SWIDTH 1 0
DWIDTH 10 0
BBX 10 16 0 -3
BITMAP
0c00
6d80
3f00
0c00
1e00
3300
0000
0000
0000
0000
0000
0000
0000
0000
0000
0000
ENDCHAR
STARTCHAR +
ENCODING 43
SWIDTH 1 0
DWIDTH 10 0
BBX 10 16 0 -3
BITMAP
0000
0000
0000
0000
0000
0c00
0c00
0c00
7f80
7f80
0c00
0c00
0c00
0000
0000
0000
ENDCHAR
STARTCHAR ,
ENCODING 44
SWIDTH 1 0
DWIDTH 4 0
BBX 4 16 0 -3
BITMAP
00
00
00
00
00
00
00
00
00
00
00
60
60
20
40
00
ENDCHAR
STARTCHAR -
ENCODING 45
SWIDTH 1 0
DWIDTH 7 0
BBX 7 16 0 -3
BITMAP
00
00
00
00
00
00
00
00
7c
7c
00
00
00
00
00
00
ENDCHAR
STARTCHAR .
ENCODING 46
SWIDTH 1 0
DWIDTH 4 0
BBX 4 16 0 -3
BITMAP
00
00
00
00
00
00
00
00
00
00
00
60
60
00
00
00
ENDCHAR
STARTCHAR /
ENCODING 47
SWIDTH 1 0
DWIDTH 8 0
BBX 8 16 0 -3
BITMAP
00
00
00
06
06
0c
0c
18
18
30
30
60
60
00
00
00
ENDCHAR
STARTCHAR 0
ENCODING 48
SWIDTH 1 0
DWIDTH 8 0
BBX 8 16 0 -3
BITMAP
00
00
00
18
24
66
66
66
66
66
66
24
18
00
00
00
ENDCHAR
STARTCHAR 1
ENCODING 49
SWIDTH 1 0
DWIDTH 8 0
BBX 8 16 0 -3
BITMAP
00
00
00
0c
1c
3c
0c
0c
0c
0c
0c
0c
1e
00
00
00
ENDCHAR
STARTCHAR 2
ENCODING 50
SWIDTH 1 0
DWIDTH 8 0
BBX 8 16 0 -3
BITMAP
00
00
00
38
7c
4c
0c
0c
18
10
32
7e
fe
00
00
00
ENDCHAR
STARTCHAR 3
ENCODING 51
SWIDTH 1 0
DWIDTH 8 0
BBX 8 16 0 -3
BITMAP
00
00
00
38
6c
0c
0c
38
0c
06
c6
cc
78
00
00
00
ENDCHAR
STARTCHAR 4
ENCODING 52
SWIDTH 1 0
DWIDTH 8 0
BBX 8 16 0 -3
BITMAP
00
00
00
0c
1c
1c
2c
2c
4c
4c
7e
0c
0c
00
00
00
ENDCHAR
STARTCHAR 5
ENCODING 53
SWIDTH 1 0
DWIDTH 8 0
BBX 8 16 0 -3
BITMAP
00
00
00
3e
3c
60
7c
7e
06
02
42
e4
78
00
00
00
ENDCHAR
STARTCHAR 6
ENCODING 54
SWIDTH 1 0
DWIDTH 8 0
BBX 8 16 0 -3
BITMAP
00
00
00
0c
30
20
78
64
66
66
66
24
18
00
00
00
ENDCHAR
STARTCHAR 7
ENCODING 55
SWIDTH 1 0
DWIDTH 8 0
BBX 8 16 0 -3
BITMAP
00
00
00
3e
7e
42
04
04
08
08
08
10
10
00
00
00
ENDCHAR
STARTCHAR 8
ENCODING 56
SWIDTH 1 0
DWIDTH 8 0
BBX 8 16 0 -3
BITMAP
00
00
00
3c
66
66
34
18
2c
66
66
66
3c
00
00
00
ENDCHAR
STARTCHAR 9
ENCODING 57
SWIDTH 1 0
DWIDTH 8 0
BBX 8 16 0 -3
BITMAP
00
00
00
18
24
66
66
66
26
1e
04
0c
38
00
00
00
ENDCHAR
STARTCHAR :
ENCODING 58
SWIDTH 1 0
DWIDTH 4 0
BBX 4 16 0 -3
BITMAP
00
00
00
00
00
00
60
60
00
00
00
60
60
00
00
00
ENDCHAR
STARTCHAR ;
ENCODING 59
SWIDTH 1 0
DWIDTH 4 0
BBX 4 16 0 -3
BITMAP
00
00
00
00
00
00
60
60
00
00
00
60
60
20
40
00
ENDCHAR
STARTCHAR <
ENCODING 60
SWIDTH 1 0
DWIDTH 9 0
BBX 9 16 0 -3
BITMAP
0000
0000
0000
0300
0600
0c00
1800
3000
3000
1800
0c00
0600
0300
0000
0000
0000
ENDCHAR
STARTCHAR =
ENCODING 61
SWIDTH 1 0
DWIDTH 7 0
BBX 7 16 0 -3
BITMAP
00
00
00
00
00
00
00
7c
7c
00
7c
7c
00
00
00
00
ENDCHAR
STARTCHAR >
ENCODING 62
SWIDTH 1 0
DWIDTH 8 0
BBX 8 16 0 -3
BITMAP
00
00
00
60
30
18
0c
06
06
0c
18
30
60
00
00
00
ENDCHAR
STARTCHAR ?
ENCODING 63
SWIDTH 1 0
DWIDTH 7 0
BBX 7 16 0 -3
BITMAP
00
00
00
38
4c
6c
0c
18
10
30
00
30
30
00
00
00
ENDCHAR
STARTCHAR @
ENCODING 64
SWIDTH 1 0
DWIDTH 14 0
BBX 14 16 0 -3
BITMAP
0000
0000
07c0
1830
2010
2348
44c8
4848
4888
4d90
26e0
2008
1830
07c0
0000
0000
ENDCHAR
STARTCHAR A
ENCODING 65
SWIDTH 1 0
DWIDTH 11 0
BBX 11 16 0 -3
BITMAP
0000
0000
0000
0400
0e00
0e00
0a00
1300
1300
1f00
2180
2180
73c0
0000
0000
0000
ENDCHAR
STARTCHAR B
ENCODING 66
SWIDTH 1 0
DWIDTH 10 0
BBX 10 16 0 -3
BITMAP
0000
0000
0000
7e00
3300
3300
3300
3e00
3300
3180
3180
3180
7f00
0000
0000
0000
ENDCHAR
STARTCHAR C
ENCODING 67
SWIDTH 1 0
DWIDTH 10 0
BBX 10 16 0 -3
BITMAP
0000
0000
0000
1e80
3180
6080
6000
6000
6000
6000
6080
3080
1f00
0000
0000
0000
ENDCHAR
STARTCHAR D
ENCODING 68
SWIDTH 1 0
DWIDTH 12 0
BBX 12 16 0 -3
BITMAP
0000
0000
0000
7f80
30c0
3060
3060
3060
3060
3060
3060
30c0
7f80
0000
0000
0000
ENDCHAR
STARTCHAR E
ENCODING 69
SWIDTH 1 0
DWIDTH 10 0
BBX 10 16 0 -3
BITMAP
0000
0000
0000
7f80
3080
3080
3200
3e00
3200
3000
3080
3080
7f80
0000
0000
0000
ENDCHAR
STARTCHAR F
ENCODING 70
SWIDTH 1 0
DWIDTH 10 0
BBX 10 16 0 -3
BITMAP
0000
0000
0000
7f80
3080
3080
3200
3e00
3200
3000
3000
3000
7800
0000
0000
0000
ENDCHAR
STARTCHAR G
ENCODING 71
SWIDTH 1 0
DWIDTH 12 0
BBX 12 16 0 -3
BITMAP
0000
0000
0000
1f40
30c0
6040
6000
6000
60e0
6040
6040
30c0
1f40
0000
0000
0000
ENDCHAR
STARTCHAR H
ENCODING 72
SWIDTH 1 0
DWIDTH 12 0
BBX 12 16 0 -3
BITMAP
0000
0000
0000
79e0
30c0
30c0
30c0
3fc0
30c0
30c0
30c0
30c0
79e0
0000
0000
0000
ENDCHAR
STARTCHAR I
ENCODING 73
SWIDTH 1 0
DWIDTH 6 0
BBX 6 16 0 -3
BITMAP
00
00
00
78
30
30
30
30
30
30
30
30
78
00
00
00
ENDCHAR
STARTCHAR J
ENCODING 74
SWIDTH 1 0
DWIDTH 7 0
BBX 7 16 0 -3
BITMAP
00
00
00
3c
18
18
18
18
18
18
98
98
70
00
00
00
ENDCHAR
STARTCHAR K
ENCODING 75
SWIDTH 1 0
DWIDTH 11 0
BBX 11 16 0 -3
BITMAP
0000
0000
0000
7bc0
3100
3200
3400
3c00
3e00
3700
3380
31c0
7be0
0000
0000
0000
ENDCHAR
STARTCHAR L
ENCODING 76
SWIDTH 1 0
DWIDTH 10 0
BBX 10 16 0 -3
BITMAP
0000
0000
0000
7800
3000
3000
3000
3000
3000
3000
3080
3080
7f80
0000
0000
0000
ENDCHAR
STARTCHAR M
ENCODING 77
SWIDTH 1 0
DWIDTH 14 0
BBX 14 16 0 -3
BITMAP
0000
0000
0000
7078
3070
3870
38b0
2cb0
2d30
2530
2730
2230
7278
0000
0000
0000
ENDCHAR
STARTCHAR N
ENCODING 78
SWIDTH 1 0
DWIDTH 12 0
BBX 12 16 0 -3
BITMAP
0000
0000
0000
70e0
3840
3840
2c40
2e40
2740
2340
21c0
21c0
70c0
0000
0000
0000
ENDCHAR
STARTCHAR O
ENCODING 79
SWIDTH 1 0
DWIDTH 11 0
BBX 11 16 0 -3
BITMAP
0000
0000
0000
1f00
3180
60c0
60c0
60c0
60c0
60c0
60c0
3180
1f00
0000
0000
0000
ENDCHAR
STARTCHAR P
ENCODING 80
SWIDTH 1 0
DWIDTH 9 0
BBX 9 16 0 -3
BITMAP
0000
0000
0000
7e00
3300
3300
3300
3300
3e00
3000
3000
3000
7800
0000
0000
0000
ENDCHAR
STARTCHAR Q
ENCODING 81
SWIDTH 1 0
DWIDTH 11 0
BBX 11 16 0 -3
BITMAP
0000
0000
0000
1f00
3180
60c0
60c0
60c0
60c0
60c0
60c0
3180
1f00
0600
0300
0180
ENDCHAR
STARTCHAR R
ENCODING 82
SWIDTH 1 0
DWIDTH 10 0
BBX 10 16 0 -3
BITMAP
0000
0000
0000
7e00
3300
3300
3300
3e00
3600
3300
3300
3180
79c0
0000
0000
0000
ENDCHAR
STARTCHAR S
ENCODING 83
SWIDTH 1 0
DWIDTH 9 0
BBX 9 16 0 -3
BITMAP
0000
0000
0000
3a00
6600
6200
7000
3c00
1e00
4700
4300
6300
5e00
0000
0000
0000
ENDCHAR
STARTCHAR T
ENCODING 84
SWIDTH 1 0
DWIDTH 10 0
BBX 10 16 0 -3
BITMAP
0000
0000
0000
7f80
4c80
4c80
0c00
0c00
0c00
0c00
0c00
0c00
1e00
0000
0000
0000
ENDCHAR
STARTCHAR U
ENCODING 85
SWIDTH 1 0
DWIDTH 12 0
BBX 12 16 0 -3
BITMAP
0000
0000
0000
78e0
3040
3040
3040
3040
3040
3040
3040
18c0
0f80
0000
0000
0000
ENDCHAR
STARTCHAR V
ENCODING 86
SWIDTH 1 0
DWIDTH 12 0
BBX 12 16 0 -3
BITMAP
0000
0000
0000
78e0
3040
3840
1880
1880
1d00
0d00
0e00
0600
0600
0000
0000
0000
ENDCHAR
STARTCHAR W
ENCODING 87
SWIDTH 1 0
DWIDTH 14 0
BBX 14 16 0 -3
BITMAP
0000
0000
0000
7bdc
3188
3188
3190
1bd0
1ad0
1af0
0e60
0c60
0c60
0000
0000
0000
ENDCHAR
STARTCHAR X
ENCODING 88
SWIDTH 1 0
DWIDTH 10 0
BBX 10 16 0 -3
BITMAP
0000
0000
0000
7b80
3100
1a00
1a00
0c00
0c00
1600
1600
2300
7780
0000
0000
0000
ENDCHAR
STARTCHAR Y
ENCODING 89
SWIDTH 1 0
DWIDTH 10 0
BBX 10 16 0 -3
BITMAP
0000
0000
0000
7b80
3100
3100
1a00
1a00
0c00
0c00
0c00
0c00
1e00
0000
0000
0000
ENDCHAR
STARTCHAR Z
ENCODING 90
SWIDTH 1 0
DWIDTH 9 0
BBX 9 16 0 -3
BITMAP
0000
0000
0000
7f00
4300
4600
0600
0c00
1800
1800
3100
6100
7f00
0000
0000
0000
ENDCHAR
STARTCHAR [
ENCODING 91
SWIDTH 1 0
DWIDTH 7 0
BBX 7 16 0 -3
BITMAP
00
00
7c
60
60
60
60
60
60
60
60
60
60
60
60
7c
ENDCHAR
STARTCHAR \
ENCODING 92
SWIDTH 1 0
DWIDTH 8 0
BBX 8 16 0 -3
BITMAP
00
00
00
60
60
30
30
18
18
0c
0c
06
06
00
00
00
ENDCHAR
STARTCHAR ]
ENCODING 93
SWIDTH 1 0
DWIDTH 7 0
BBX 7 16 0 -3
BITMAP
00
00
7c
0c
0c
0c
0c
0c
0c
0c
0c
0c
0c
0c
0c
7c
ENDCHAR
STARTCHAR ^
ENCODING 94
SWIDTH 1 0
DWIDTH 10 0
BBX 10 16 0 -3
BITMAP
0000
0000
0000
0000
0c00
1e00
3f00
6d80
4c80
0c00
0c00
0c00
0000
0000
0000
0000
ENDCHAR
STARTCHAR _
ENCODING 95
SWIDTH 1 0
DWIDTH 10 0
BBX 10 16 0 -3
BITMAP
0000
0000
0000
0000
0c00
1800
3000
7f80
7f80
3000
1800
0c00
0000
0000
0000
0000
ENDCHAR
STARTCHAR `
ENCODING 96
SWIDTH 1 0
DWIDTH 4 0
BBX 4 16 0 -3
BITMAP
00
00
00
20
40
60
60
00
00
00
00
00
00
00
00
00
ENDCHAR
STARTCHAR a
ENCODING 97
SWIDTH 1 0
DWIDTH 8 0
BBX 8 16 0 -3
BITMAP
00
00
00
00
00
00
1c
26
0e
36
66
66
3b
00
00
00
ENDCHAR
STARTCHAR b
ENCODING 98
SWIDTH 1 0
DWIDTH 9 0
BBX 9 16 0 -3
BITMAP
0000
0000
0000
7000
3000
3000
3600
3b00
3300
3300
3300
3300
2e00
0000
0000
0000
ENDCHAR
STARTCHAR c
ENCODING 99
SWIDTH 1 0
DWIDTH 8 0
BBX 8 16 0 -3
BITMAP
00
00
00
00
00
00
3c
62
66
60
60
62
3c
00
00
00
ENDCHAR
STARTCHAR d
ENCODING 100
SWIDTH 1 0
DWIDTH 8 0
BBX 8 16 0 -3
BITMAP
00
00
00
0e
06
06
36
6e
66
66
66
66
3b
00
00
00
ENDCHAR
STARTCHAR e
ENCODING 101
SWIDTH 1 0
DWIDTH 8 0
BBX 8 16 0 -3
BITMAP
00
00
00
00
00
00
3c
66
66
7e
60
62
3c
00
00
00
ENDCHAR
STARTCHAR f
ENCODING 102
SWIDTH 1 0
DWIDTH 6 0
BBX 6 16 0 -3
BITMAP
00
00
00
1c
34
30
78
30
30
30
30
30
78
00
00
00
ENDCHAR
STARTCHAR g
ENCODING 103
SWIDTH 1 0
DWIDTH 8 0
BBX 8 16 0 -3
BITMAP
00
00
00
00
00
00
3d
66
66
7c
20
7c
7e
c6
c6
7c
ENDCHAR
STARTCHAR h
ENCODING 104
SWIDTH 1 0
DWIDTH 9 0
BBX 9 16 0 -3
BITMAP
0000
0000
0000
7000
3000
3000
3600
3b00
3300
3300
3300
3300
7780
0000
0000
0000
ENDCHAR
STARTCHAR i
ENCODING 105
SWIDTH 1 0
DWIDTH 6 0
BBX 6 16 0 -3
BITMAP
00
00
00
30
30
00
70
30
30
30
30
30
78
00
00
00
ENDCHAR
STARTCHAR j
ENCODING 106
SWIDTH 1 0
DWIDTH 5 0
BBX 5 16 0 -3
BITMAP
00
00
00
30
30
00
70
30
30
30
30
30
30
b0
b0
60
ENDCHAR
STARTCHAR k
ENCODING 107
SWIDTH 1 0
DWIDTH 9 0
BBX 9 16 0 -3
BITMAP
0000
0000
0000
7000
3000
3000
3700
3200
3400
3c00
3600
3700
7380
0000
0000
0000
ENDCHAR
STARTCHAR l
ENCODING 108
SWIDTH 1 0
DWIDTH 6 0
BBX 6 16 0 -3
BITMAP
00
00
00
70
30
30
30
30
30
30
30
30
78
00
00
00
ENDCHAR
STARTCHAR m
ENCODING 109
SWIDTH 1 0
DWIDTH 13 0
BBX 13 16 0 -3
BITMAP
0000
0000
0000
0000
0000
0000
76e0
3bb0
3330
3330
3330
3330
77b8
0000
0000
0000
ENDCHAR
STARTCHAR n
ENCODING 110
SWIDTH 1 0
DWIDTH 9 0
BBX 9 16 0 -3
BITMAP
0000
0000
0000
0000
0000
0000
7600
3b00
3300
3300
3300
3300
7b80
0000
0000
0000
ENDCHAR
STARTCHAR o
ENCODING 111
SWIDTH 1 0
DWIDTH 8 0
BBX 8 16 0 -3
BITMAP
00
00
00
00
00
00
3c
66
66
66
66
66
3c
00
00
00
ENDCHAR
STARTCHAR p
ENCODING 112
SWIDTH 1 0
DWIDTH 9 0
BBX 9 16 0 -3
BITMAP
0000
0000
0000
0000
0000
0000
7600
3b00
3300
3300
3300
3b00
3600
3000
3000
7800
ENDCHAR
STARTCHAR q
ENCODING 113
SWIDTH 1 0
DWIDTH 8 0
BBX 8 16 0 -3
BITMAP
00
00
00
00
00
00
36
6e
66
66
66
6e
36
06
06
0f
ENDCHAR
STARTCHAR r
ENCODING 114
SWIDTH 1 0
DWIDTH 7 0
BBX 7 16 0 -3
BITMAP
00
00
00
00
00
00
7c
34
30
30
30
30
78
00
00
00
ENDCHAR
STARTCHAR s
ENCODING 115
SWIDTH 1 0
DWIDTH 7 0
BBX 7 16 0 -3
BITMAP
00
00
00
00
00
00
38
64
70
38
1c
4c
78
00
00
00
ENDCHAR
STARTCHAR t
ENCODING 116
SWIDTH 1 0
DWIDTH 6 0
BBX 6 16 0 -3
BITMAP
00
00
00
00
10
30
78
30
30
30
30
34
18
00
00
00
ENDCHAR
STARTCHAR u
ENCODING 117
SWIDTH 1 0
DWIDTH 9 0
BBX 9 16 0 -3
BITMAP
0000
0000
0000
0000
0000
0000
7700
3300
3300
3300
3300
3700
1b80
0000
0000
0000
ENDCHAR
STARTCHAR v
ENCODING 118
SWIDTH 1 0
DWIDTH 8 0
BBX 8 16 0 -3
BITMAP
00
00
00
00
00
00
f7
62
62
34
34
18
18
00
00
00
ENDCHAR
STARTCHAR w
ENCODING 119
SWIDTH 1 0
DWIDTH 13 0
BBX 13 16 0 -3
BITMAP
0000
0000
0000
0000
0000
0000
7bb8
3110
33b0
1ba0
1ee0
0cc0
0840
0000
0000
0000
ENDCHAR
STARTCHAR x
ENCODING 120
SWIDTH 1 0
DWIDTH 9 0
BBX 9 16 0 -3
BITMAP
0000
0000
0000
0000
0000
0000
7300
3a00
1c00
0c00
1e00
3700
6380
0000
0000
0000
ENDCHAR
STARTCHAR y
ENCODING 121
SWIDTH 1 0
DWIDTH 8 0
BBX 8 16 0 -3
BITMAP
00
00
00
00
00
00
f7
62
62
34
34
18
18
50
f0
60
ENDCHAR
STARTCHAR z
ENCODING 122
SWIDTH 1 0
DWIDTH 8 0
BBX 8 16 0 -3
BITMAP
00
00
00
00
00
00
7e
46
0c
18
30
62
7e
00
00
00
ENDCHAR
STARTCHAR {
ENCODING 123
SWIDTH 1 0
DWIDTH 8 0
BBX 8 16 0 -3
BITMAP
00
00
0e
18
18
18
18
18
70
18
18
18
18
18
18
0e
ENDCHAR
STARTCHAR |
ENCODING 124
SWIDTH 1 0
DWIDTH 4 0
BBX 4 16 0 -3
BITMAP
00
00
00
60
60
60
60
60
60
60
60
60
60
60
60
00
ENDCHAR
STARTCHAR }
ENCODING 125
SWIDTH 1 0
DWIDTH 8 0
BBX 8 16 0 -3
BITMAP
00
00
70
18
18
18
18
18
0e
18
18
18
18
18
18
70
ENDCHAR
STARTCHAR ~
ENCODING 126
SWIDTH 1 0
DWIDTH 10 0
BBX 10 16 0 -3
BITMAP
0000
0000
0000
0000
0000
0000
0000
1980
3f00
6600
0000
0000
0000
0000
0000
0000
ENDCHAR
ENDFONT
